HIERARCHY
ROOT Hips
{
	OFFSET 182.371002 92.491722 19.190800
	CHANNELS 6 Xposition Yposition Zposition Zrotation Yrotation Xrotation 
	JOINT RightUpLeg
	{
		OFFSET 0.103461 1.857828 10.548504
		CHANNELS 3 Xrotation Yrotation Zrotation
		JOINT RightLeg
		{
			OFFSET 43.500008 -0.000031 0.000006
			CHANNELS 3 Xrotation Yrotation Zrotation
			JOINT RightFoot
			{
				OFFSET 42.372200 0.000019 -0.000010
				CHANNELS 3 Xrotation Yrotation Zrotation
				JOINT RightToe
				{
					OFFSET 17.299999 -0.000000 0.000002
					CHANNELS 3 Xrotation Yrotation Zrotation
					End Site
					{
						OFFSET 0.000000 0.000000 0.000000
					}
				}
			}
		}
	}
	JOINT LeftUpLeg
	{
		OFFSET 0.103457 1.857829 -10.548504
		CHANNELS 3 Xrotation Yrotation Zrotation
		JOINT LeftLeg
		{
			OFFSET 43.500046 -0.000019 0.000011
			CHANNELS 3 Xrotation Yrotation Zrotation
			JOINT LeftFoot
			{
				OFFSET 42.372261 0.000000 0.000008
				CHANNELS 3 Xrotation Yrotation Zrotation
				JOINT LeftToe
				{
					OFFSET 17.299990 -0.000006 0.000008
					CHANNELS 3 Xrotation Yrotation Zrotation
					End Site
					{
						OFFSET 0.000000 0.000000 0.000000
					}
				}
			}
		}
	}
	JOINT Spine
	{
		OFFSET 6.901969 -2.603727 -0.000006
		CHANNELS 3 Xrotation Yrotation Zrotation
		JOINT Spine1
		{
			OFFSET 12.588100 -0.000002 0.000002
			CHANNELS 3 Xrotation Yrotation Zrotation
			JOINT Spine2
			{
				OFFSET 12.343195 0.000004 0.000008
				CHANNELS 3 Xrotation Yrotation Zrotation
				JOINT Neck
				{
					OFFSET 25.832905 -0.000008 -0.000002
					CHANNELS 3 Xrotation Yrotation Zrotation
					JOINT Head
					{
						OFFSET 11.766608 0.000010 -0.000008
						CHANNELS 3 Xrotation Yrotation Zrotation
						End Site
						{
							OFFSET 0.000000 0.000000 0.000000
						}
					}
				}
				JOINT RightShoulder
				{
					OFFSET 19.745903 -1.480370 6.000106
					CHANNELS 3 Xrotation Yrotation Zrotation
					JOINT RightArm
					{
						OFFSET 11.284119 -0.000006 -0.000014
						CHANNELS 3 Xrotation Yrotation Zrotation
						JOINT RightForeArm
						{
							OFFSET 33.000050 0.000004 0.000026
							CHANNELS 3 Xrotation Yrotation Zrotation
							JOINT RightHand
							{
								OFFSET 25.200020 0.000017 0.000004
								CHANNELS 3 Xrotation Yrotation Zrotation
								End Site
								{
									OFFSET 0.000000 0.000000 0.000000
								}
							}
						}
					}
				}
				JOINT LeftShoulder
				{
					OFFSET 19.746099 -1.480375 -6.000082
					CHANNELS 3 Xrotation Yrotation Zrotation
					JOINT LeftArm
					{
						OFFSET 11.284140 -0.000015 -0.000008
						CHANNELS 3 Xrotation Yrotation Zrotation
						JOINT LeftForeArm
						{
							OFFSET 33.000084 0.000016 0.000002
							CHANNELS 3 Xrotation Yrotation Zrotation
							JOINT LeftHand
							{
								OFFSET 25.199783 0.000142 0.000437
								CHANNELS 3 Xrotation Yrotation Zrotation
								End Site
								{
									OFFSET 0.000000 0.000000 0.000000
								}
							}
						}
					}
				}
			}
		}
	}
}
MOTION
Frames: 8
Frame Time: 0.033333
102.080704 89.714951 283.453094 87.209583 1.333998 87.785040 156.092062 -4.477803 174.757439 -24.685028 0.189323 -0.220724 72.504193 -0.008081 -0.587415 21.454557 0.003123 0.000018 -166.925753 1.453513 -179.455857 -21.870056 3.198046 -0.694739 84.630586 0.673016 1.315328 21.454545 -0.003099 0.000001 10.387364 0.364972 1.087354 10.768107 0.627174 2.203966 10.450257 0.640325 2.200140 -7.906770 -10.446588 -5.273242 -44.597799 9.622830 -14.777864 168.116938 -72.249707 10.841314 -21.793766 52.131108 22.237826 -44.112616 -21.584264 2.033312 9.868604 -3.872996 86.037905 169.491814 81.069216 -9.100285 -27.831228 -46.545557 -12.143082 -48.478681 21.201346 -2.115284 -1.537822 16.145944 -4.718948 
102.622597 89.734138 287.450104 87.885212 1.663499 89.012945 157.002731 -3.629104 174.208606 -28.477868 -0.167037 0.653341 76.069545 -0.293158 0.497002 21.454558 0.003120 0.000021 -166.602589 2.263001 -178.592631 -25.901163 3.315215 -0.391750 80.737644 0.460365 1.144005 21.454553 -0.003081 -0.000002 10.268449 0.065079 0.952763 10.524395 0.043247 1.907439 10.206490 0.054617 1.907138 -8.313338 -11.261654 -5.903770 -44.268645 10.510907 -16.237762 166.949959 -72.179294 12.041686 -22.661746 51.172129 22.811181 -40.758601 -20.947944 1.894430 10.049006 -3.485711 85.406004 173.396947 80.539344 -5.158044 -25.740784 -49.606329 -15.277893 -43.336154 21.083578 -1.948881 -0.690436 15.469993 -4.467195 
103.289497 90.219337 291.249207 88.310173 1.414702 88.887945 159.144132 -3.155587 173.334464 -29.002110 -0.586652 0.906822 78.320236 -0.255036 1.324609 21.454558 0.003113 0.000018 -168.778701 3.214089 -177.606201 -32.243643 2.541592 -0.969346 74.818350 1.195298 1.971981 21.454553 -0.003090 -0.000003 9.972301 -0.121800 1.014383 9.928903 -0.330165 2.014553 9.611000 -0.318104 2.016498 -8.309694 -12.771914 -6.125451 -43.367658 11.727578 -17.525512 166.881971 -72.272629 12.107735 -23.163694 51.243843 22.319745 -37.661134 -19.996227 1.749843 10.871714 -2.922905 84.397301 173.567879 80.763497 -4.978081 -22.885864 -52.992559 -19.108798 -37.751104 19.607486 -1.699712 1.492140 16.421125 -2.091627 
103.938904 90.845238 294.889191 88.579378 1.418697 88.448013 162.159004 -2.568684 172.758324 -28.082323 -0.774412 0.768978 79.838020 -0.047274 1.822022 21.454557 0.003100 0.000015 -172.257221 4.145101 -177.070455 -40.680795 1.254042 -1.340422 69.756551 3.040332 6.143656 21.454550 -0.003088 -0.000008 9.762979 -0.274438 1.017200 9.507733 -0.631407 2.008420 9.189816 -0.619412 2.012185 -8.638785 -13.402512 -5.921584 -41.435838 12.144753 -17.442133 168.052980 -72.512696 10.897526 -23.067542 51.536755 22.325901 -35.533946 -19.872780 1.689156 12.305603 -1.769398 84.426507 174.193415 81.206858 -4.331729 -20.861520 -55.706275 -22.962097 -32.958378 16.888713 -1.411563 3.856175 16.192063 1.364861 
104.459801 91.596001 298.628387 88.398904 1.762494 88.355955 165.911210 -2.375898 173.321542 -26.319367 -1.383234 0.313290 80.743525 0.308117 1.977779 21.454558 0.003116 0.000018 -175.988512 4.301702 -176.756198 -49.189390 0.217399 -0.765090 64.716596 3.882204 8.461238 21.454551 -0.003082 -0.000005 9.654229 -0.291889 0.898836 9.290704 -0.654908 1.771355 8.972755 -0.644341 1.775265 -8.714795 -13.911365 -5.614544 -39.978754 12.770074 -17.395758 169.098012 -72.130493 9.838986 -22.073537 50.839564 22.923472 -34.450197 -19.497081 1.639346 13.577303 -1.527405 84.952390 174.918030 81.240476 -3.596370 -18.306095 -57.580831 -27.708606 -29.814271 15.287377 -1.244539 5.039974 10.547629 0.820317 
104.817299 92.274689 302.224487 88.108614 2.249602 88.411990 169.487770 -2.415408 173.568849 -24.841921 -1.790646 0.132087 81.080889 0.422490 1.911453 21.454562 0.003122 0.000019 -179.659547 4.172701 -176.556401 -56.283330 -0.157114 -0.660323 62.811772 3.600007 7.529425 21.454543 -0.003101 0.000010 9.634840 -0.258742 0.741367 9.253292 -0.575842 1.459658 8.935282 -0.567161 1.463095 -9.017022 -13.820073 -5.425474 -38.342063 13.210624 -17.181749 169.339979 -71.975420 9.596184 -21.355952 49.931989 23.415299 -33.824726 -18.822774 1.581615 14.014405 -1.520201 84.703307 176.442310 81.068048 -2.055748 -14.872754 -58.871805 -32.172821 -28.530457 14.501572 -1.170126 3.907535 3.600063 -4.160945 
105.094902 92.742599 305.650085 88.116325 2.628403 88.654052 172.571642 -2.172109 173.297445 -23.765452 -1.830781 0.290820 81.199577 0.294830 1.843879 21.454562 0.003115 0.000017 176.539613 4.360389 -176.058631 -61.657026 -0.231704 -1.996887 65.542004 3.819063 6.107313 21.454555 -0.003101 0.000005 9.618441 -0.253435 0.521533 9.221698 -0.547593 1.021222 8.903640 -0.541551 1.024510 -9.051776 -13.353862 -5.447620 -36.722048 13.536421 -16.982362 169.182980 -72.061597 9.754213 -20.840266 49.050484 25.032182 -33.474849 -18.639730 1.561969 13.845709 -1.646891 83.177183 -179.348077 80.701636 2.206307 -11.435696 -59.398016 -37.356261 -28.792727 14.460689 -1.172312 2.724218 -2.814154 -10.935440 
105.272598 93.066467 308.988312 88.142341 2.813796 88.944950 175.200759 -2.097306 173.135337 -23.047705 -2.024212 0.502214 81.280317 0.142850 1.811640 21.454558 0.003111 0.000018 172.636624 4.471000 -175.575723 -64.502210 0.037741 -3.389722 68.200340 4.591861 5.931154 21.454558 -0.003087 0.000003 9.565617 -0.244423 0.286996 9.117248 -0.510629 0.553866 8.799145 -0.507404 0.556926 -8.674064 -12.903825 -5.580907 -35.345474 13.919930 -16.928137 169.248058 -72.191999 9.682480 -20.397960 48.231401 26.632060 -33.713056 -18.654234 1.568257 13.885602 -1.242791 81.466624 -175.204775 80.162010 6.404905 -8.024414 -59.360675 -42.566504 -29.893914 14.370882 -1.187251 1.444966 -6.151973 -15.446027 
